<svg width="30" height="30" viewBox="0 0 30 30" fill="none" xmlns="http://www.w3.org/2000/svg">
<path d="M15 0C6.71234 0 0 6.81441 0 15.2281C0 22.3847 4.83702 28.3243 11.363 29.9987C11.2877 29.8082 11.2506 29.5412 11.2506 29.2755V26.6861H9.37532C8.36298 26.6861 7.42468 26.2299 7.01234 25.3914C6.52468 24.4777 6.44936 23.0689 5.21234 22.1928C4.83702 21.8883 5.13702 21.5837 5.54936 21.6213C6.33702 21.8494 6.97404 22.3834 7.57404 23.1817C8.17404 23.9813 8.43702 24.1719 9.5617 24.1719C10.0864 24.1719 10.9111 24.1343 11.6617 24.0189C12.074 22.9523 12.7864 22.001 13.6494 21.5448C8.62468 20.9357 6.22468 18.4228 6.22468 14.9961C6.22468 13.5109 6.8617 12.1021 7.91234 10.8839C7.57532 9.70321 7.12468 7.26672 8.06298 6.31545C10.3136 6.31545 11.663 7.80067 12 8.1804C13.1247 7.79938 14.363 7.57128 15.637 7.57128C16.9494 7.57128 18.1494 7.79938 19.274 8.1804C19.6111 7.79938 20.9617 6.31545 23.2111 6.31545C24.1111 7.22913 23.6987 9.70321 23.3234 10.8839C24.374 12.0645 24.974 13.5109 24.974 14.9961C24.974 18.4228 22.6111 20.9357 17.6247 21.4684C19.0123 22.1915 19.9877 24.247 19.9877 25.7698V29.2379C19.9877 29.352 19.9506 29.466 19.9506 29.5801C25.8 27.5246 30 21.8909 30 15.2281C30 6.81441 23.2877 0 15 0Z" fill="#DBFEFE"/>
</svg>
