<svg width="25" height="25" viewBox="0 0 25 25" fill="none" xmlns="http://www.w3.org/2000/svg">
<g clip-path="url(#clip0)">
<path d="M19.6232 13.3381H5.40956C5.20731 13.3381 5.0434 13.5021 5.0434 13.7043C5.0434 13.9065 5.20731 14.0705 5.40956 14.0705H19.6231C19.8254 14.0705 19.9893 13.9065 19.9893 13.7043C19.9893 13.5021 19.8254 13.3381 19.6232 13.3381Z" fill="#DBFEFE" stroke="#DBFEFE" stroke-width="0.4"/>
<path d="M19.6232 15.8662H5.40956C5.20731 15.8662 5.0434 16.0302 5.0434 16.2324C5.0434 16.4346 5.20731 16.5985 5.40956 16.5985H19.6231C19.8254 16.5985 19.9893 16.4346 19.9893 16.2324C19.9893 16.0301 19.8254 15.8662 19.6232 15.8662Z" fill="#DBFEFE" stroke="#DBFEFE" stroke-width="0.4"/>
<path d="M19.9894 18.7604C19.9894 18.5582 19.8254 18.3943 19.6232 18.3943H5.40956C5.20731 18.3943 5.0434 18.5583 5.0434 18.7604C5.0434 18.9627 5.20731 19.1266 5.40956 19.1266H19.6231C19.8254 19.1266 19.9894 18.9626 19.9894 18.7604Z" fill="#DBFEFE" stroke="#DBFEFE" stroke-width="0.4"/>
<path d="M5.40956 20.9221C5.20731 20.9221 5.0434 21.0861 5.0434 21.2883C5.0434 21.4905 5.20731 21.6544 5.40956 21.6544H12.5C12.7022 21.6544 12.8661 21.4905 12.8661 21.2883C12.8661 21.0861 12.7022 20.9221 12.5 20.9221H5.40956Z" fill="#DBFEFE" stroke="#DBFEFE" stroke-width="0.4"/>
<path d="M19.6232 9.05786H14.4003C14.1981 9.05786 14.0342 9.22183 14.0342 9.42402C14.0342 9.62627 14.1981 9.79019 14.4003 9.79019H19.6232C19.8254 9.79019 19.9894 9.62622 19.9894 9.42402C19.9894 9.22178 19.8254 9.05786 19.6232 9.05786Z" fill="#DBFEFE" stroke="#DBFEFE" stroke-width="0.4"/>
<path d="M22.0452 20.7986C22.2475 20.7986 22.4114 20.6346 22.4114 20.4324V5.58735C22.4114 5.08447 22.2072 4.63262 21.8808 4.3062C17.9997 0.43916 18.1001 0.490625 17.8536 0.320898C17.5533 0.112549 17.1974 0 16.8241 0H4.40033C3.40131 0 2.58856 0.812793 2.58856 1.81182V23.1882C2.58856 24.1872 3.40131 25 4.40033 25H20.5996C21.5987 25 22.4114 24.1872 22.4114 23.1882V22.1509C22.4114 21.9486 22.2475 21.7847 22.0452 21.7847C21.843 21.7847 21.6791 21.9487 21.6791 22.1509V23.1882C21.6791 23.7834 21.1949 24.2676 20.5996 24.2676H4.40033C3.80516 24.2676 3.32089 23.7834 3.32089 23.1882V1.81182C3.32089 1.2166 3.80511 0.732373 4.40033 0.732373H16.8241C16.9034 0.732373 16.9811 0.74165 17.0567 0.758203V4.09233C17.0567 4.78843 17.623 5.35474 18.3191 5.35474H21.6532C21.6698 5.43037 21.679 5.50806 21.679 5.58735V20.4324C21.6791 20.6346 21.843 20.7986 22.0452 20.7986ZM18.3191 4.62236C18.0268 4.62236 17.789 4.38457 17.789 4.09229V1.2502L21.1612 4.62236H18.3191Z" fill="#DBFEFE" stroke="#DBFEFE" stroke-width="0.6"/>
<path d="M5.37678 6.08672C5.17454 6.08672 5.01062 6.25068 5.01062 6.45288V9.73066C5.01062 10.3974 5.553 10.9398 6.2198 10.9398H10.5207C11.1874 10.9398 11.7299 10.3974 11.7299 9.73066V4.39766C11.7299 3.73091 11.1875 3.18848 10.5207 3.18848H6.2198C5.55305 3.18848 5.01062 3.73091 5.01062 4.39766V4.74097C5.01062 4.94321 5.17454 5.10713 5.37678 5.10713C5.57903 5.10713 5.74294 4.94316 5.74294 4.74097V4.39766C5.74294 4.13477 5.95686 3.92085 6.21975 3.92085H10.5206C10.7835 3.92085 10.9974 4.13477 10.9974 4.39766V8.6938C10.6637 8.31748 10.2512 8.01572 9.78538 7.81143C9.97068 7.53823 10.0791 7.20879 10.0791 6.85454C10.0791 5.91226 9.31253 5.1456 8.37024 5.1456C7.42796 5.1456 6.6613 5.91221 6.6613 6.85454C6.6613 7.20884 6.7697 7.53823 6.95505 7.81143C6.48919 8.01577 6.07668 8.31748 5.74299 8.6938V6.45288C5.74299 6.25063 5.57908 6.08672 5.37678 6.08672ZM8.37024 5.87798C8.90867 5.87798 9.34675 6.31606 9.34675 6.85454C9.34675 7.39302 8.90867 7.8311 8.37024 7.8311C7.83176 7.8311 7.39368 7.39302 7.39368 6.85454C7.39368 6.31606 7.83176 5.87798 8.37024 5.87798ZM7.57107 8.36445C7.80974 8.49131 8.08167 8.56348 8.37024 8.56348C8.65881 8.56348 8.93079 8.49131 9.16941 8.36445C9.9699 8.60371 10.6168 9.18804 10.9375 9.96167C10.856 10.1081 10.6998 10.2075 10.5207 10.2075H6.2198C6.0407 10.2075 5.8845 10.1082 5.803 9.96172C6.12361 9.18804 6.77048 8.60371 7.57107 8.36445Z" fill="#DBFEFE"/>
</g>
<defs>
<clipPath id="clip0">
<rect width="25" height="25" fill="white"/>
</clipPath>
</defs>
</svg>
