<svg width="24" height="24" viewBox="0 0 24 24" fill="none" xmlns="http://www.w3.org/2000/svg">
<path d="M0 1.76041C0 0.815265 0.794437 0.0480957 1.77375 0.0480957H22.2263C23.2059 0.0480957 24 0.815265 24 1.76041V22.2401C24 23.1855 23.2059 23.9521 22.2263 23.9521H1.77375C0.794531 23.9521 0 23.1856 0 22.2403V1.76013V1.76041Z" fill="#DBFEFE"/>
<path d="M7.29337 20.0527V9.291H3.702V20.0527H7.29375H7.29337ZM5.49844 7.82193C6.75056 7.82193 7.53009 6.99556 7.53009 5.96284C7.50665 4.90658 6.75056 4.10327 5.52225 4.10327C4.29309 4.10327 3.49031 4.90658 3.49031 5.96274C3.49031 6.99547 4.26956 7.82184 5.4749 7.82184H5.49815L5.49844 7.82193ZM9.28125 20.0527H12.8723V14.0435C12.8723 13.7223 12.8958 13.4003 12.9907 13.1708C13.2502 12.5279 13.8411 11.8625 14.8334 11.8625C16.1326 11.8625 16.6526 12.8492 16.6526 14.2961V20.0527H20.2436V13.8823C20.2436 10.5769 18.4721 9.0387 16.1093 9.0387C14.1722 9.0387 13.3214 10.1171 12.8487 10.8516H12.8726V9.29137H9.28144C9.32831 10.3009 9.28115 20.053 9.28115 20.053L9.28125 20.0527Z" fill="black"/>
</svg>
