<svg width="48" height="48" viewBox="0 0 48 48" fill="none" xmlns="http://www.w3.org/2000/svg">
<path d="M0 41.8108C0 45.2293 2.77106 48 6.18919 48H41.8106C45.2293 48 48 45.2289 48 41.8108V6.18937C48 2.77069 45.2289 0 41.8108 0H6.18937C2.77069 0 0 2.77106 0 6.18919V41.8106V41.8108Z" fill="#563D7C"/>
<path d="M19.9046 21.2321V14.4347H25.888C26.458 14.4347 27.0073 14.4821 27.5365 14.5772C28.0656 14.6721 28.5338 14.8416 28.9408 15.0859C29.3477 15.3302 29.6734 15.6694 29.9177 16.1034C30.1618 16.5377 30.2841 17.094 30.2841 17.7722C30.2841 18.9934 29.9177 19.8754 29.185 20.418C28.4524 20.9608 27.5162 21.2321 26.3764 21.2321H19.9046ZM13.5141 9.46875V38.5312H27.5976C28.9001 38.5312 30.1688 38.3685 31.4035 38.0428C32.6381 37.7171 33.7371 37.2152 34.7005 36.5368C35.6636 35.8584 36.4303 34.9832 37.0001 33.9114C37.5701 32.8395 37.855 31.5709 37.855 30.1056C37.855 28.2874 37.414 26.7339 36.5321 25.4451C35.6501 24.156 34.3136 23.2537 32.5226 22.7381C33.8252 22.1141 34.809 21.3135 35.4739 20.3366C36.1386 19.3597 36.471 18.1388 36.471 16.6733C36.471 15.3165 36.2471 14.1769 35.7994 13.2542C35.3516 12.3317 34.7207 11.5922 33.9066 11.0359C33.0926 10.4796 32.1158 10.0792 30.976 9.83512C29.8363 9.59081 28.5745 9.46875 27.1905 9.46875H13.5141ZM19.9046 33.5653V25.5874H26.8648C28.2488 25.5874 29.3614 25.9061 30.2027 26.544C31.0438 27.1817 31.4646 28.2467 31.4646 29.7392C31.4646 30.4991 31.3356 31.1231 31.0778 31.6116C30.82 32.1 30.474 32.4868 30.0398 32.7716C29.6057 33.0566 29.1036 33.2601 28.5338 33.3823C27.9638 33.5042 27.367 33.5653 26.7428 33.5653H19.9046Z" fill="white"/>
</svg>
