<svg width="42" height="48" viewBox="0 0 42 48" fill="none" xmlns="http://www.w3.org/2000/svg">
<g clip-path="url(#clip0)">
<path d="M21.0508 47.8485L3.89885 43.0415L0.0765228 -0.238281H42.0765L38.2502 43.0349L21.0508 47.8485V47.8485Z" fill="#264DE4"/>
<path d="M35.6783 40.2792L39.0139 3.30029H21.5V44.1689L35.6783 40.2792Z" fill="#2965F1"/>
<path d="M8.01576 19.3521L8.49645 24.6601H20.5V19.3521H8.01576ZM7.04969 8.6084L7.53726 13.9165H20.5V8.6084H7.04969ZM20.5 33.1378L20.4765 33.1439L14.5027 31.5477L14.1208 27.3143H8.73612L9.48755 35.6488L20.4753 38.6671L20.5 38.6604V33.1378Z" fill="#EBEBEB"/>
<path d="M32.95 19.3521L33.9182 8.6084H20.4815V13.9165H28.0398L27.5518 19.3521H20.4815V24.6601H27.0867L26.4639 31.5444L20.4814 33.1422V38.6646L31.4779 35.6488L31.5585 34.7519L32.8192 20.7774L32.95 19.3521Z" fill="white"/>
</g>
<defs>
<clipPath id="clip0">
<rect width="42" height="48" fill="white"/>
</clipPath>
</defs>
</svg>
