<svg width="33" height="49" viewBox="0 0 33 49" fill="none" xmlns="http://www.w3.org/2000/svg">
<g clip-path="url(#clip0)">
<path d="M8.25164 48.9998C12.8047 48.9998 16.5 45.3412 16.5 40.8332V32.6665H8.25164C3.69855 32.6665 0.0032959 36.3252 0.0032959 40.8332C0.0032959 45.3412 3.69855 48.9998 8.25164 48.9998Z" fill="#0ACF83"/>
<path d="M0.0032959 24.5002C0.0032959 19.9922 3.69855 16.3335 8.25164 16.3335H16.5V32.6668H8.25164C3.69855 32.6668 0.0032959 29.0082 0.0032959 24.5002Z" fill="#1ABCFE"/>
<path d="M0.00387573 8.16666C0.00387573 3.65867 3.69913 0 8.25222 0H16.5006V16.3333H8.25222C3.69913 16.3333 0.00387573 12.6747 0.00387573 8.16666Z" fill="#FF7262"/>
<path d="M16.5 0H24.7484C29.3014 0 32.9967 3.65867 32.9967 8.16666C32.9967 12.6747 29.3014 16.3333 24.7484 16.3333H16.5V0Z" fill="#F24E1E"/>
<path d="M32.9967 24.5002C32.9967 29.0082 29.3014 32.6668 24.7484 32.6668C20.1953 32.6668 16.5 29.0082 16.5 24.5002C16.5 19.9922 20.1953 16.3335 24.7484 16.3335C29.3014 16.3335 32.9967 19.9922 32.9967 24.5002Z" fill="#A259FF"/>
</g>
<defs>
<clipPath id="clip0">
<rect width="33" height="49" fill="white"/>
</clipPath>
</defs>
</svg>
