<svg width="49" height="49" viewBox="0 0 49 49" fill="none" xmlns="http://www.w3.org/2000/svg">
<path d="M48.0759 22.3173L26.682 0.92455C25.4507 -0.307532 23.4524 -0.307532 22.2196 0.92455L17.777 5.36709L23.4126 11.0027C24.7222 10.5601 26.224 10.857 27.2679 11.9009C28.3168 12.9516 28.6116 14.4662 28.1583 15.78L33.5895 21.2113C34.9035 20.7586 36.4196 21.0515 37.4691 22.1027C38.9359 23.5689 38.9359 25.9452 37.4691 27.4123C36.002 28.8796 33.6257 28.8796 32.1578 27.4123C31.0545 26.3079 30.782 24.6876 31.3405 23.3285L26.2755 18.2635L26.2749 31.5924C26.6421 31.774 26.9774 32.0138 27.2679 32.3025C28.7347 33.7687 28.7347 36.1452 27.2679 37.6135C25.8008 39.08 23.4233 39.08 21.9583 37.6135C20.4916 36.1452 20.4916 33.7689 21.9583 32.3027C22.3098 31.9511 22.7275 31.6726 23.1873 31.4833V18.0301C22.7269 17.8422 22.3089 17.5635 21.9583 17.2107C20.847 16.101 20.5798 14.4704 21.1492 13.1058L15.5939 7.54989L0.924492 22.2183C-0.308164 23.4515 -0.308164 25.45 0.924492 26.6823L22.3187 48.0754C23.5504 49.3077 25.5483 49.3077 26.7816 48.0754L48.0757 26.7816C49.308 25.549 49.308 23.5493 48.0757 22.3173" fill="#DE4C36"/>
</svg>
