<svg width="48" height="48" viewBox="0 0 48 48" fill="none" xmlns="http://www.w3.org/2000/svg">
<path d="M24 0C37.2603 0 48 10.9031 48 24.365C48 35.8154 40.2608 45.3188 29.8192 47.9979C29.9397 47.6931 29.999 47.2659 29.999 46.8409V42.6978H32.9995C34.6192 42.6978 36.1205 41.9679 36.7803 40.6262C37.5605 39.1643 37.681 36.9103 39.6603 35.5086C40.2608 35.0213 39.7808 34.534 39.121 34.5941C37.8608 34.959 36.8415 35.8134 35.8815 37.0907C34.9215 38.3701 34.5008 38.675 32.7013 38.675C31.8618 38.675 30.5423 38.6148 29.3413 38.4303C28.6815 36.7237 27.5418 35.2017 26.161 34.4717C34.2005 33.4972 38.0405 29.4764 38.0405 23.9938C38.0405 21.6174 37.0213 19.3634 35.3403 17.4142C35.8795 15.5251 36.6005 11.6267 35.0992 10.1047C31.4982 10.1047 29.3392 12.4811 28.8 13.0886C27.0005 12.479 25.0192 12.114 22.9808 12.114C20.881 12.114 18.961 12.479 17.1615 13.0886C16.6223 12.479 14.4613 10.1047 10.8623 10.1047C9.4223 11.5666 10.082 15.5251 10.6826 17.4142C9.00153 19.3033 8.04153 21.6174 8.04153 23.9938C8.04153 29.4764 11.8223 33.4972 19.8005 34.3494C17.5803 35.5065 16.0197 38.7952 16.0197 41.2317V46.7807C16.0197 46.9632 16.079 47.1457 16.079 47.3281C6.72 44.0394 0 35.0254 0 24.365C0 10.9031 10.7397 0 24 0Z" fill="black"/>
</svg>
