<svg width="42" height="48" viewBox="0 0 42 48" fill="none" xmlns="http://www.w3.org/2000/svg">
<path d="M42 0H0L3.70588 42.9474L21 48L38.2941 42.9474L42 0Z" fill="#E65100"/>
<path d="M21.25 3.75V43.625L35.25 39.625L38.375 3.75H21.25Z" fill="#FF6D00"/>
<path d="M21.25 25V20H32L31.125 34.375L21.25 37.625V32.375L26.375 30.625L26.75 25H21.25V25ZM32.375 15L32.75 10H21.25V15H32.375Z" fill="white"/>
<path d="M21.25 32.375V37.625L11.375 34.375L10.875 27.5H15.875L16.125 30.625L21.25 32.375ZM15.125 15H21.25V10H9.875L10.75 25H21.25V20H15.5L15.125 15Z" fill="#EEEEEE"/>
</svg>
