<svg width="42" height="48" viewBox="0 0 42 48" fill="none" xmlns="http://www.w3.org/2000/svg">
<g clip-path="url(#clip0)">
<path d="M3.89684 43.1596L-0.00170135 0.00244141L41.9977 0.0189134L38.132 43.1267L20.9653 48.0024L3.89684 43.1596ZM34.9705 40.8041L38.2302 3.84046H21.0308L21.1618 44.6092L34.9705 40.8041V40.8041ZM19.4255 9.25982H15.2485L15.1993 31.382L7.09103 29.1582L7.10741 34.2152L19.4255 37.5591V9.25982V9.25982Z" fill="#D4B830"/>
<path opacity="0.986" d="M7.10746 34.2153L7.09108 29.1583C7.09108 29.1583 12.2673 30.6243 15.1994 31.382L15.2485 9.27637H19.4255V37.5591L7.10746 34.2153V34.2153Z" fill="#EBEBEB"/>
<path d="M21.0308 3.82422H38.2303L34.9706 40.7878L21.0308 44.5929V3.82422ZM34.086 34.5943L35.2163 20.7741L26.8622 21.713V14.3335L35.7732 14.3005L36.1336 9.26004L22.6852 9.32593L22.8654 27.6759L30.9901 26.2758L30.8755 30.3609L22.6852 32.5517L22.7671 37.5593L34.086 34.5943Z" fill="#FDD83C"/>
</g>
<defs>
<clipPath id="clip0">
<rect width="42" height="48" fill="white"/>
</clipPath>
</defs>
</svg>
