<svg width="37" height="50" viewBox="0 0 37 50" fill="none" xmlns="http://www.w3.org/2000/svg">
<path d="M11.9298 38.6519C11.9298 38.6519 10.0226 39.761 13.2872 40.1363C17.2422 40.5875 19.2635 40.5229 23.622 39.6979C23.622 39.6979 24.7679 40.4164 26.3681 41.0388C16.5977 45.2262 4.25551 40.7961 11.9298 38.6519ZM10.7359 33.1875C10.7359 33.1875 8.59669 34.771 11.8637 35.1089C16.0886 35.5447 19.425 35.5804 25.1984 34.4687C25.1984 34.4687 25.997 35.2782 27.2526 35.721C15.4395 39.1753 2.28181 35.9934 10.7359 33.1875Z" fill="#5382A1"/>
<path d="M20.8009 23.9182C23.2084 26.6899 20.1684 29.1841 20.1684 29.1841C20.1684 29.1841 26.2812 26.0285 23.4739 22.0767C20.8519 18.3918 18.8411 16.5606 29.7264 10.2476C29.7264 10.2476 12.6401 14.5149 20.8009 23.9181" fill="#E76F00"/>
<path d="M33.7231 42.6941C33.7231 42.6941 35.1346 43.8569 32.1687 44.7567C26.5291 46.4652 8.69583 46.9811 3.74179 44.8247C1.96101 44.0501 5.3006 42.975 6.35104 42.7493C7.44656 42.5117 8.07271 42.5561 8.07271 42.5561C6.09222 41.1608 -4.7283 45.2955 2.57647 46.4795C22.4974 49.7101 38.8903 45.0249 33.7231 42.6941ZM12.8468 27.5261C12.8468 27.5261 3.77589 29.6808 9.63471 30.463C12.1084 30.7942 17.0398 30.7193 21.6333 30.3344C25.3873 30.0179 29.1568 29.3445 29.1568 29.3445C29.1568 29.3445 27.8331 29.9114 26.8755 30.5653C17.6639 32.988 -0.131188 31.861 4.99179 29.3828C9.3243 27.2886 12.847 27.5261 12.847 27.5261H12.8468ZM29.1194 36.6218C38.4835 31.7559 34.1539 27.0799 31.132 27.7099C30.3912 27.864 30.061 27.9975 30.061 27.9975C30.061 27.9975 30.336 27.5669 30.8612 27.3805C36.8395 25.2786 41.4373 33.5795 28.9312 36.867C28.9312 36.8672 29.0762 36.7377 29.1194 36.6218Z" fill="#5382A1"/>
<path d="M23.4738 0.0533672C23.4738 0.0533672 28.6598 5.24122 18.5552 13.2182C10.4525 19.6174 16.7075 23.2659 18.5519 27.4346C13.8221 23.1672 10.351 19.4106 12.6798 15.9143C16.0975 10.7818 25.5662 8.29354 23.4738 0.0532227" fill="#E76F00"/>
<path d="M13.7671 49.8071C22.7554 50.3825 36.5578 49.4879 36.8847 45.2349C36.8847 45.2349 36.2564 46.8473 29.4564 48.1276C21.7847 49.5713 12.3228 49.4028 6.71085 48.4775C6.71099 48.4775 7.85969 49.4283 13.7672 49.8071" fill="#5382A1"/>
</svg>
