<svg width="48" height="48" viewBox="0 0 48 48" fill="none" xmlns="http://www.w3.org/2000/svg">
<g clip-path="url(#clip0)">
<path d="M42.9952 9.32954C40.0938 5.57239 36.1433 2.76006 31.6435 1.24822C27.1436 -0.263615 22.2965 -0.407048 17.7151 0.836064C13.1337 2.07918 9.02383 4.653 5.9053 8.232C2.78678 11.811 0.79967 16.2344 0.195276 20.9429C-0.409118 25.6513 0.396359 30.4332 2.50983 34.6838C4.62331 38.9344 7.94985 42.4628 12.0687 44.8227C16.1876 47.1826 20.9139 48.2681 25.6497 47.9418C30.3855 47.6155 34.9182 45.8921 38.6745 42.9895C49.1595 34.8865 51.0945 19.8183 42.9945 9.32954H42.9952Z" fill="#FF6C37"/>
<path d="M32.0947 15.2908L21.975 25.4908L19.1152 22.5508C29.0752 12.5908 30.075 13.4908 32.0955 15.2908H32.0947Z" fill="white"/>
<path d="M21.975 25.77C21.8854 25.7678 21.7998 25.7322 21.735 25.6703L18.855 22.7903C18.7901 22.7232 18.7539 22.6335 18.7539 22.5401C18.7539 22.4468 18.7901 22.3571 18.855 22.29C28.6747 12.4703 30.015 12.93 32.3347 15.03C32.4135 15.093 32.4577 15.189 32.4547 15.2903C32.4697 15.3878 32.4322 15.4875 32.355 15.5505L22.2352 25.671C22.164 25.7363 22.0717 25.7715 21.975 25.7708V25.77ZM19.6147 22.5503L21.975 24.9105L31.575 15.3105C31.2435 14.8951 30.7706 14.6165 30.2466 14.528C29.7226 14.4394 29.1843 14.5471 28.7347 14.8305C26.9947 15.6105 24.195 17.9903 19.6147 22.5503Z" fill="#FF6C37"/>
<path d="M24.8752 28.3112L22.1152 25.4912L32.235 15.4907C34.9552 18.151 30.915 22.591 24.8752 28.3105V28.3112Z" fill="white"/>
<path d="M24.8753 28.6712C24.7867 28.6642 24.7027 28.6293 24.6353 28.5715L21.8153 25.8115C21.773 25.7089 21.773 25.5938 21.8153 25.4912C21.7853 25.4072 21.7853 25.315 21.8153 25.231L31.935 15.1112C32.0813 14.974 32.3085 14.974 32.4548 15.1112C33.1185 15.7217 33.4823 16.5902 33.4545 17.491C33.4545 20.191 30.3743 23.5907 25.1348 28.5512C25.0648 28.6205 24.9726 28.663 24.8745 28.6712H24.8753ZM22.635 25.4912L24.8948 27.7502C28.8945 23.9702 32.715 20.0702 32.7345 17.4302C32.7563 16.8706 32.5713 16.3225 32.2148 15.8905L22.635 25.4912Z" fill="#FF6C37"/>
<path d="M19.1947 22.611L21.195 24.6113C21.2078 24.6225 21.218 24.6364 21.225 24.6519C21.232 24.6674 21.2356 24.6843 21.2356 24.7013C21.2356 24.7183 21.232 24.7351 21.225 24.7507C21.218 24.7662 21.2078 24.78 21.195 24.7913L16.9747 25.6913C16.8 25.7288 16.6222 25.6448 16.5382 25.4873C16.4542 25.3298 16.4857 25.1348 16.6147 25.011L19.0747 22.5713C19.0747 22.5713 19.155 22.5713 19.1947 22.611Z" fill="white"/>
<path d="M16.875 26.0909C16.7416 26.0892 16.611 26.0534 16.4954 25.9868C16.3799 25.9202 16.2833 25.8251 16.215 25.7106C16.0575 25.4129 16.1137 25.0461 16.3552 24.8106L18.795 22.3506C18.883 22.272 18.9968 22.2285 19.1149 22.2285C19.2329 22.2285 19.3467 22.272 19.4347 22.3506L21.435 24.3509C21.5535 24.4634 21.6 24.6336 21.555 24.7911C21.51 24.9486 21.378 25.0739 21.2152 25.1114L16.995 26.0114L16.875 26.0909ZM19.1152 23.0511L16.8555 25.3109L20.5957 24.5106L19.1152 23.0511Z" fill="#FF6C37"/>
<path d="M37.4753 9.67031C36.0278 8.27381 33.7538 8.21531 32.2358 9.53306C30.7177 10.8508 30.4583 13.1128 31.6403 14.7403C32.8223 16.3678 35.0505 16.8238 36.7755 15.7903L34.0553 13.0701L37.4753 9.67031Z" fill="white"/>
<path d="M34.7753 16.71C33.9436 16.6994 33.1335 16.4442 32.4459 15.9764C31.7583 15.5085 31.2235 14.8487 30.9083 14.079C30.2633 12.5055 30.6203 10.6995 31.8083 9.49055C32.609 8.70453 33.6862 8.26416 34.8083 8.26416C35.9303 8.26416 37.0075 8.70453 37.8083 9.49055C37.8848 9.55505 37.9283 9.6503 37.9283 9.7508C37.9281 9.80025 37.9173 9.84907 37.8966 9.89397C37.8759 9.93888 37.8457 9.9788 37.8083 10.011L34.5683 13.071L37.0283 15.4913C37.0681 15.5294 37.098 15.5766 37.1154 15.6289C37.1328 15.6812 37.1371 15.7369 37.128 15.7913C37.1221 15.8437 37.1047 15.8942 37.0771 15.9392C37.0495 15.9842 37.0123 16.0225 36.9683 16.0515C36.3074 16.4646 35.5476 16.6926 34.7685 16.7115L34.7753 16.71ZM34.7753 8.9498C33.3503 8.9573 32.0753 9.81455 31.5405 11.1248C31.0058 12.435 31.2968 13.9433 32.2958 14.9498C33.3128 15.972 34.8458 16.266 36.1755 15.69L33.8153 13.3298C33.7365 13.2668 33.6923 13.1708 33.6953 13.0695C33.6983 12.9758 33.7418 12.8881 33.8153 12.8295L36.9353 9.6893C36.315 9.2138 35.5568 8.9543 34.7753 8.94905V8.9498Z" fill="#FF6C37"/>
<path d="M37.5352 9.73047L34.1152 13.1302L36.8355 15.8505C37.1093 15.6933 37.3642 15.5053 37.5952 15.2902C39.0772 13.7152 39.0502 11.2642 37.5352 9.73047Z" fill="white"/>
<path d="M36.7748 16.1506C36.7298 16.153 36.6849 16.1453 36.6434 16.1281C36.6019 16.1108 36.5647 16.0844 36.5348 16.0508L33.8145 13.3306C33.7358 13.2676 33.6915 13.1716 33.6945 13.0703C33.6975 12.9766 33.741 12.8888 33.8145 12.8303L37.2143 9.49059C37.2471 9.44109 37.2917 9.40048 37.344 9.37238C37.3964 9.34429 37.4549 9.32959 37.5143 9.32959C37.5737 9.32959 37.6322 9.34429 37.6845 9.37238C37.7368 9.40048 37.7814 9.44109 37.8143 9.49059C38.2134 9.88165 38.5305 10.3484 38.7469 10.8635C38.9634 11.3787 39.0749 11.9318 39.0749 12.4906C39.0749 13.0494 38.9634 13.6025 38.7469 14.1176C38.5305 14.6328 38.2134 15.0995 37.8143 15.4906C37.5788 15.7403 37.3094 15.9557 37.014 16.1303C36.9396 16.1678 36.8536 16.1751 36.774 16.1506H36.7748ZM34.575 13.0711L36.8348 15.3308C36.9902 15.2219 37.1374 15.1016 37.275 14.9708C37.9393 14.3084 38.3135 13.4093 38.3153 12.4711C38.3168 11.6315 38.0108 10.8204 37.455 10.1911L34.575 13.0711Z" fill="#FF6C37"/>
<path d="M32.5148 15.7109C31.9523 15.1829 31.077 15.1829 30.5145 15.7109L21.4553 24.7499L22.9553 26.2702L32.535 17.8702C32.8313 17.5874 32.997 17.1952 32.9925 16.7857C32.988 16.3762 32.8155 15.9869 32.5148 15.7102V15.7109Z" fill="white"/>
<path d="M22.875 26.6309C22.7854 26.6287 22.6998 26.5931 22.635 26.5311L21.1148 25.0109C21.0499 24.9438 21.0137 24.8541 21.0137 24.7608C21.0137 24.6674 21.0499 24.5778 21.1148 24.5106L30.1748 15.4904C30.8933 14.7734 32.0573 14.7734 32.775 15.4904C33.135 15.8504 33.33 16.3416 33.315 16.8501C33.294 17.3556 33.0705 17.8311 32.6948 18.1701L23.115 26.5701C23.0453 26.6196 22.9598 26.6406 22.875 26.6301V26.6309ZM21.8153 24.7499L22.815 25.7699L32.2148 17.5896C32.4473 17.3871 32.586 17.0976 32.595 16.7894C32.604 16.4811 32.4825 16.1796 32.2553 15.9696C31.818 15.5346 31.1123 15.5346 30.675 15.9696L21.8153 24.7499Z" fill="#FF6C37"/>
<path d="M14.4352 35.0505C14.4097 35.0853 14.3959 35.1273 14.3959 35.1705C14.3959 35.2137 14.4097 35.2557 14.4352 35.2905L14.835 37.0305C14.8695 37.2383 14.7697 37.4453 14.586 37.5555C14.4969 37.6076 14.3935 37.6301 14.2908 37.6197C14.1881 37.6094 14.0914 37.5666 14.0145 37.4978L11.2747 34.8578L19.815 26.25H22.7753L24.7755 28.2503C21.6553 30.9783 18.1762 33.2663 14.4352 35.0505Z" fill="white"/>
<path d="M14.2552 37.9905C14.0287 37.986 13.8052 37.893 13.6552 37.7302L11.0355 35.1105C10.9567 35.0475 10.9125 34.9515 10.9155 34.8502C10.9185 34.7565 10.962 34.6687 11.0355 34.6102L19.635 25.9905C19.6831 25.9393 19.7461 25.9044 19.815 25.8907H22.7947C22.8724 25.8633 22.9571 25.8633 23.0347 25.8907L25.035 27.891C25.1122 27.9622 25.1497 28.0672 25.1347 28.1707C25.1361 28.2204 25.126 28.2697 25.1052 28.3149C25.0844 28.36 25.0534 28.3998 25.0147 28.431L24.855 28.5712C21.7222 31.1829 18.2755 33.3933 14.595 35.151L14.9752 36.771C15.0046 36.8959 15.0058 37.0259 14.9785 37.1513C14.9513 37.2768 14.8964 37.3946 14.8179 37.4961C14.7393 37.5977 14.6391 37.6804 14.5245 37.7383C14.4099 37.7962 14.2838 37.8278 14.1555 37.8307L14.2552 37.9905ZM11.8155 34.8502L14.175 37.23C14.197 37.2496 14.2254 37.2604 14.2549 37.2604C14.2843 37.2604 14.3128 37.2496 14.3347 37.23C14.3494 37.2095 14.3574 37.185 14.3574 37.1598C14.3574 37.1347 14.3494 37.1101 14.3347 37.0897L13.935 35.3497C13.8705 35.0925 13.995 34.8247 14.235 34.71C17.8166 32.9758 21.1744 30.8132 24.2347 28.2697L22.5945 26.6295H19.9147L11.8155 34.8502Z" fill="#FF6C37"/>
<path d="M9.21525 36.9104L11.2155 34.9102L14.2957 37.9904L9.396 37.6507C9.2235 37.6379 9.07725 37.5157 9.036 37.3462C8.99475 37.1767 9.0675 37.0012 9.216 36.9112L9.21525 36.9104Z" fill="white"/>
<path d="M14.355 38.2907L9.47474 37.9509C9.18524 37.9239 8.93624 37.7259 8.83424 37.4612C8.73224 37.1964 8.79449 36.8822 8.99474 36.6707L10.995 34.6704C11.0621 34.6056 11.1518 34.5693 11.2451 34.5693C11.3384 34.5693 11.4281 34.6056 11.4952 34.6704L14.5552 37.7304C14.6422 37.8504 14.6422 38.0109 14.5552 38.1302C14.5087 38.2052 14.4382 38.2614 14.355 38.2899V38.2907ZM9.47474 37.1709L13.4745 37.4312L11.2747 35.3709L9.47474 37.1709Z" fill="#FF6C37"/>
<path d="M23.055 26.4915L19.0147 27.1117L21.3547 24.792L23.055 26.4915Z" fill="white"/>
<path d="M19.0147 27.4907C18.8775 27.4944 18.7522 27.4157 18.6945 27.2904C18.6519 27.2325 18.6289 27.1625 18.6289 27.0906C18.6289 27.0187 18.6519 26.9486 18.6945 26.8907L21.0142 24.5507C21.1605 24.4134 21.3877 24.4134 21.534 24.5507L23.235 26.2502C23.269 26.3041 23.287 26.3665 23.287 26.4302C23.287 26.4939 23.269 26.5563 23.235 26.6102C23.2183 26.6759 23.183 26.7353 23.1334 26.7815C23.0838 26.8277 23.0219 26.8585 22.9552 26.8704L18.9555 27.4907H19.0147ZM21.3547 25.3104L20.055 26.6102L22.2952 26.2704L21.3547 25.3104Z" fill="#FF6C37"/>
<path d="M23.055 26.4898L20.235 26.8498C20.1595 26.8669 20.0806 26.8593 20.0098 26.828C19.939 26.7967 19.8802 26.7435 19.8421 26.6761C19.8039 26.6088 19.7885 26.5309 19.7981 26.4542C19.8077 26.3774 19.8417 26.3057 19.8953 26.2498L21.3555 24.7896L23.055 26.4898Z" fill="white"/>
<path d="M20.1547 27.2312C19.8885 27.229 19.6447 27.0835 19.515 26.851C19.4386 26.7141 19.409 26.556 19.4307 26.4007C19.4523 26.2455 19.5241 26.1015 19.635 25.9907L21.0953 24.5305C21.2415 24.3932 21.4687 24.3932 21.615 24.5305L23.3152 26.2307C23.3658 26.2786 23.4014 26.3402 23.4177 26.4079C23.434 26.4756 23.4302 26.5466 23.407 26.6123C23.3837 26.6779 23.3419 26.7354 23.2866 26.7778C23.2313 26.8202 23.1649 26.8456 23.0955 26.851L20.2958 27.211L20.1547 27.2312ZM20.1547 26.491L22.275 26.2307L21.3352 25.291L20.1352 26.491H20.1547ZM37.5548 12.031C37.5171 11.9679 37.4575 11.9208 37.3874 11.8987C37.3174 11.8766 37.2416 11.8809 37.1745 11.911C37.1414 11.9278 37.112 11.951 37.088 11.9794C37.0641 12.0077 37.046 12.0406 37.035 12.076C37.0125 12.1472 37.02 12.2245 37.0545 12.2912C37.1947 12.586 37.1558 12.9347 36.9548 13.1912C36.9023 13.2407 36.8798 13.309 36.8798 13.381C36.8805 13.4513 36.9072 13.5189 36.9548 13.5707C37.0061 13.591 37.0632 13.591 37.1145 13.5707C37.1611 13.5824 37.21 13.5812 37.2558 13.567C37.3017 13.5529 37.3429 13.5264 37.3748 13.4905C37.5394 13.2889 37.6437 13.0447 37.6756 12.7864C37.7074 12.528 37.6655 12.2658 37.5548 12.0302V12.031Z" fill="#FF6C37"/>
</g>
<defs>
<clipPath id="clip0">
<rect width="48" height="48" fill="white"/>
</clipPath>
</defs>
</svg>
