<svg width="55" height="50" viewBox="0 0 55 50" fill="none" xmlns="http://www.w3.org/2000/svg">
<path d="M55 25.0057C55 21.4012 50.4372 17.9853 43.4417 15.867C45.0561 8.81325 44.3386 3.20133 41.1771 1.40463C40.4484 0.983185 39.5964 0.783552 38.6659 0.783552V3.25679C39.1816 3.25679 39.5964 3.3566 39.9439 3.54515C41.4686 4.41022 42.13 7.70417 41.6144 11.9408C41.491 12.9834 41.2892 14.0814 41.0426 15.2015C38.8453 14.6692 36.4462 14.2588 33.9238 13.9926C32.4103 11.9408 30.8408 10.0776 29.2601 8.44725C32.9148 5.08676 36.3453 3.2457 38.6771 3.2457V0.772461C35.5942 0.772461 31.5583 2.94625 27.4776 6.7171C23.3969 2.96843 19.361 0.816824 16.278 0.816824V3.29006C18.5987 3.29006 22.0404 5.12003 25.6951 8.45835C24.1256 10.0887 22.5561 11.9408 21.065 13.9926C18.5314 14.2588 16.1323 14.6692 13.935 15.2126C13.6771 14.1035 13.4865 13.0277 13.352 11.9963C12.8251 7.75963 13.4753 4.46568 14.9888 3.58951C15.3251 3.38988 15.7623 3.30115 16.278 3.30115V0.827915C15.3363 0.827915 14.4843 1.02755 13.7444 1.449C10.5942 3.2457 9.88789 8.84652 11.5135 15.8781C4.54036 18.0075 0 21.4123 0 25.0057C0 28.6102 4.56278 32.0262 11.5583 34.1445C9.94395 41.1982 10.6614 46.8101 13.8229 48.6068C14.5516 49.0283 15.4036 49.2279 16.3453 49.2279C19.4283 49.2279 23.4641 47.0541 27.5448 43.2833C31.6256 47.0319 35.6614 49.1836 38.7444 49.1836C39.6861 49.1836 40.5381 48.9839 41.278 48.5625C44.4283 46.7658 45.1345 41.1649 43.509 34.1334C50.4596 32.0151 55 28.5991 55 25.0057ZM40.4036 17.6082C39.9888 19.0389 39.4731 20.514 38.8901 21.989C38.4305 21.1018 37.9484 20.2145 37.4215 19.3273C36.9058 18.44 36.3565 17.5749 35.8072 16.732C37.3991 16.9649 38.935 17.2533 40.4036 17.6082ZM35.2691 29.4198C34.3946 30.9171 33.4978 32.3367 32.5673 33.6565C30.8969 33.8007 29.204 33.8783 27.5 33.8783C25.8072 33.8783 24.1144 33.8007 22.4552 33.6676C21.5247 32.3478 20.6166 30.9393 19.7422 29.4531C18.8901 28.0002 18.1166 26.5252 17.4103 25.039C18.1054 23.5528 18.8901 22.0667 19.7309 20.6138C20.6054 19.1165 21.5022 17.6969 22.4327 16.3771C24.1031 16.233 25.796 16.1553 27.5 16.1553C29.1928 16.1553 30.8857 16.233 32.5448 16.366C33.4753 17.6858 34.3834 19.0944 35.2578 20.5805C36.1099 22.0334 36.8834 23.5085 37.5897 24.9946C36.8834 26.4808 36.1099 27.967 35.2691 29.4198ZM38.8901 27.9781C39.4955 29.4642 40.0112 30.9504 40.4372 32.3922C38.9686 32.7471 37.4215 33.0465 35.8184 33.2794C36.3677 32.4254 36.917 31.5493 37.4327 30.6509C37.9484 29.7637 38.4305 28.8653 38.8901 27.9781ZM27.5224 39.8119C26.4798 38.7472 25.4372 37.5605 24.4058 36.2628C25.4148 36.3072 26.4462 36.3405 27.4888 36.3405C28.5426 36.3405 29.5852 36.3183 30.6054 36.2628C29.5964 37.5605 28.5538 38.7472 27.5224 39.8119ZM19.1816 33.2794C17.5897 33.0465 16.0538 32.7582 14.5852 32.4033C15 30.9726 15.5157 29.4975 16.0987 28.0224C16.5583 28.9097 17.0404 29.7969 17.5673 30.6842C18.0942 31.5715 18.6323 32.4365 19.1816 33.2794ZM27.4664 10.1996C28.509 11.2643 29.5516 12.451 30.583 13.7486C29.574 13.7043 28.5426 13.671 27.5 13.671C26.4462 13.671 25.4036 13.6932 24.3834 13.7486C25.3924 12.451 26.435 11.2643 27.4664 10.1996ZM19.1704 16.732C18.6211 17.586 18.0717 18.4622 17.5561 19.3605C17.0404 20.2478 16.5583 21.1351 16.0987 22.0223C15.4933 20.5362 14.9776 19.05 14.5516 17.6082C16.0202 17.2644 17.5673 16.9649 19.1704 16.732ZM9.02467 30.6177C5.05606 28.9429 2.48879 26.747 2.48879 25.0057C2.48879 23.2645 5.05606 21.0574 9.02467 19.3938C9.98879 18.9835 11.0426 18.6175 12.13 18.2737C12.7691 20.4474 13.6099 22.71 14.6525 25.0279C13.6211 27.3348 12.7915 29.5862 12.1637 31.7489C11.0538 31.4051 10 31.028 9.02467 30.6177ZM15.0561 46.4663C13.5314 45.6012 12.87 42.3073 13.3857 38.0706C13.509 37.0281 13.7108 35.9301 13.9574 34.81C16.1547 35.3423 18.5538 35.7527 21.0762 36.0188C22.5897 38.0706 24.1592 39.9339 25.7399 41.5642C22.0852 44.9247 18.6547 46.7658 16.3229 46.7658C15.8184 46.7547 15.3924 46.6549 15.0561 46.4663ZM41.648 38.0152C42.1749 42.2518 41.5247 45.5458 40.0112 46.422C39.6749 46.6216 39.2377 46.7103 38.722 46.7103C36.4013 46.7103 32.9596 44.8803 29.3049 41.542C30.8744 39.9117 32.4439 38.0595 33.935 36.0078C36.4686 35.7416 38.8677 35.3312 41.065 34.7878C41.3229 35.9079 41.5247 36.9837 41.648 38.0152ZM45.9641 30.6177C45 31.028 43.9462 31.394 42.8587 31.7378C42.2197 29.564 41.3789 27.3015 40.3363 24.9836C41.3677 22.6767 42.1973 20.4253 42.8251 18.2626C43.935 18.6064 44.9888 18.9835 45.9753 19.3938C49.9439 21.0685 52.5112 23.2645 52.5112 25.0057C52.5 26.747 49.9327 28.954 45.9641 30.6177Z" fill="#61DAFB"/>
<path d="M27.4888 30.0744C30.3183 30.0744 32.6121 27.8052 32.6121 25.006C32.6121 22.2067 30.3183 19.9375 27.4888 19.9375C24.6593 19.9375 22.3655 22.2067 22.3655 25.006C22.3655 27.8052 24.6593 30.0744 27.4888 30.0744Z" fill="#61DAFB"/>
</svg>
