<svg width="51" height="49" viewBox="0 0 51 49" fill="none" xmlns="http://www.w3.org/2000/svg">
<g clip-path="url(#clip0)">
<path d="M35.3376 34.086C37.2197 33.8896 38.6475 32.2542 38.5825 30.2916C38.5178 28.3291 36.8951 26.759 34.9482 26.759H34.8185C32.8064 26.8245 31.2489 28.5253 31.3138 30.5532C31.3788 31.5346 31.768 32.385 32.3522 32.9737C30.1456 37.3569 26.7708 40.5623 21.7087 43.2444C18.269 45.0762 14.6996 45.7304 11.1302 45.2726C8.20961 44.88 5.93812 43.5717 4.51012 41.4127C2.43346 38.2073 2.23882 34.74 3.99115 31.2729C5.22432 28.787 7.17108 26.9552 8.40425 26.0394C8.14467 25.189 7.75519 23.7498 7.56056 22.7032C-1.84994 29.5721 -0.876362 38.8615 1.97924 43.2444C4.12084 46.5155 8.46919 48.5434 13.2718 48.5434C14.5697 48.5434 15.8676 48.4125 17.1657 48.0856C25.4729 46.4501 31.7682 41.4782 35.3376 34.086ZM46.7601 25.9741C41.8276 20.1518 34.5589 16.9464 26.2517 16.9464H25.2133C24.6292 15.7688 23.3961 14.9837 22.0332 14.9837H21.9033C19.8916 15.0492 18.3341 16.75 18.3989 18.7781C18.4638 20.7405 20.0862 22.3106 22.0332 22.3106H22.1629C23.5907 22.2452 24.8239 21.3293 25.343 20.0863H26.5113C31.4437 20.0863 36.1164 21.5255 40.3351 24.3385C43.5799 26.4974 45.9164 29.3105 47.2143 32.7121C48.3176 35.4597 48.2526 38.1418 47.0844 40.4316C45.2673 43.8987 42.2171 45.7958 38.1932 45.7958C35.5972 45.7958 33.1311 45.0107 31.833 44.4219C31.1192 45.0762 29.8211 46.1228 28.9124 46.7772C31.7033 48.0854 34.5589 48.8051 37.2846 48.8051C43.515 48.8051 48.1229 45.3378 49.8752 41.8707C51.7573 38.0763 51.6274 31.5346 46.7601 25.9741ZM13.7909 35.1978C13.8559 37.1605 15.4783 38.7304 17.4253 38.7304H17.5552C19.5671 38.6651 21.1246 36.9641 21.0596 34.9362C20.9949 32.9735 19.3722 31.4036 17.4253 31.4036H17.2956C17.1657 31.4036 16.9709 31.4036 16.8414 31.4689C14.1804 27.0205 13.0771 22.1797 13.4666 16.9462C13.726 13.021 15.0241 9.61923 17.2956 6.80616C19.1776 4.38567 22.812 3.20816 25.2783 3.1429C32.1575 3.01198 35.0779 11.6471 35.2727 15.1144C36.1164 15.3106 37.5442 15.7686 38.5178 16.0958C37.7388 5.49813 31.2489 0.00292969 25.0187 0.00292969C19.1776 0.00292969 13.7909 4.25515 11.6491 10.5353C8.66383 18.9088 10.6108 26.9552 14.2451 33.3008C13.9208 33.7587 13.726 34.4783 13.7909 35.198V35.1978Z" fill="#764ABC"/>
</g>
<defs>
<clipPath id="clip0">
<rect width="51" height="49" fill="white"/>
</clipPath>
</defs>
</svg>
