<svg width="64" height="48" viewBox="0 0 64 48" fill="none" xmlns="http://www.w3.org/2000/svg">
<g clip-path="url(#clip0)">
<path d="M55.075 27.5752C52.8375 27.5878 50.9 28.1252 49.275 28.9253C48.675 27.7378 48.075 26.7002 47.9751 25.9253C47.8626 25.0253 47.7251 24.4752 47.8626 23.4003C48 22.3252 48.625 20.8002 48.625 20.6752C48.6124 20.5627 48.4874 20.0127 47.2 20.0002C45.9126 19.9877 44.8 20.2502 44.675 20.5877C44.55 20.9252 44.3 21.7002 44.1375 22.5002C43.9125 23.6752 41.5625 27.8377 40.225 30.0252C39.7875 29.1752 39.4125 28.4252 39.3374 27.8251C39.225 26.9252 39.0874 26.3751 39.225 25.3002C39.3625 24.2251 39.9875 22.7002 39.9875 22.5752C39.975 22.4627 39.85 21.9127 38.5626 21.9002C37.275 21.8877 36.1626 22.1502 36.0376 22.4877C35.9126 22.8252 35.7751 23.6252 35.5001 24.4002C35.2375 25.1752 32.1125 32.1252 31.3 33.9377C30.8875 34.8627 30.5251 35.6002 30.2625 36.1002C30 36.6002 30.25 36.1377 30.225 36.1877C30 36.6127 29.875 36.8502 29.875 36.8502V36.8628C29.7 37.1753 29.5125 37.4752 29.4249 37.4752C29.3624 37.4752 29.2374 36.6377 29.4499 35.4878C29.9124 33.0752 31.0374 29.3128 31.025 29.1753C31.025 29.1128 31.2374 28.4502 30.2999 28.1128C29.3874 27.7753 29.0625 28.3378 28.9874 28.3378C28.9124 28.3378 28.8499 28.5378 28.8499 28.5378C28.8499 28.5378 29.8624 24.3004 26.9124 24.3004C25.0624 24.3004 22.5124 26.3129 21.2499 28.1504C20.4499 28.5879 18.7499 29.5128 16.9499 30.5004C16.2624 30.8754 15.5499 31.2754 14.8749 31.6379L14.7375 31.4877C11.1625 27.6752 4.55001 24.9752 4.82501 19.8502C4.92501 17.9877 5.57501 13.0752 17.5251 7.12519C27.3126 2.2502 35.1501 3.5877 36.5125 6.56269C38.45 10.8127 32.325 18.7127 22.1501 19.8502C18.2751 20.2877 16.2375 18.7877 15.7251 18.2252C15.1876 17.6377 15.1126 17.6127 14.9126 17.7252C14.5876 17.9002 14.7876 18.4252 14.9126 18.7377C15.2126 19.5252 16.4626 20.9252 18.5876 21.6252C20.45 22.2377 25.0001 22.5752 30.5001 20.4502C36.6626 18.0627 41.4751 11.4377 40.0626 5.90019C38.6251 0.262698 29.2751 -1.5873 20.4376 1.5502C15.175 3.4252 9.47501 6.35019 5.37501 10.1877C0.500015 14.7377 -0.274984 18.7127 0.0500156 20.3627C1.18764 26.2502 9.30001 30.0877 12.55 32.9252C12.3875 33.0126 12.2375 33.1001 12.1 33.1752C10.475 33.9751 4.28751 37.2127 2.73751 40.6376C0.987515 44.5126 3.01251 47.3002 4.36251 47.6752C8.53751 48.8377 12.8125 46.7502 15.125 43.3127C17.4249 39.8752 17.15 35.4127 16.0875 33.3752L16.0499 33.3002L17.3249 32.5502C18.15 32.0627 18.9625 31.6127 19.6749 31.2251C19.275 32.3126 18.9874 33.6001 18.8375 35.4751C18.6625 37.6752 19.5625 40.5251 20.75 41.6501C21.275 42.1374 21.9 42.1501 22.2875 42.1501C23.6625 42.1501 24.2875 41.0124 24.975 39.6501C25.825 37.9876 26.575 36.0626 26.575 36.0626C26.575 36.0626 25.6375 41.2751 28.2 41.2751C29.1375 41.2751 30.075 40.0626 30.5 39.4376V39.4501C30.5 39.4501 30.525 39.4126 30.575 39.3251C30.6274 39.2475 30.6775 39.1683 30.725 39.0877V39.0627C31.1 38.4127 31.9375 36.9252 33.1875 34.4627C34.7999 31.2877 36.35 27.3127 36.35 27.3127C36.35 27.3127 36.5 28.2877 36.9625 29.8877C37.2374 30.8378 37.8374 31.8752 38.2999 32.8877C37.9249 33.4127 37.6999 33.7128 37.6999 33.7128L37.7124 33.7253C37.4125 34.1253 37.0749 34.5504 36.725 34.9753C35.45 36.5003 33.925 38.2379 33.725 38.7379C33.4875 39.3253 33.5375 39.7628 34 40.1129C34.3375 40.3629 34.9375 40.4128 35.575 40.3629C36.725 40.2878 37.525 40.0004 37.925 39.8253C38.55 39.6003 39.2625 39.2628 39.95 38.7628C41.2 37.8379 41.9625 36.5254 41.8875 34.7754C41.85 33.8129 41.5375 32.8629 41.15 31.9629C41.2625 31.8004 41.3751 31.6378 41.4875 31.4629C43.4625 28.5753 44.9875 25.4004 44.9875 25.4004C44.9875 25.4004 45.1375 26.3754 45.6 27.9754C45.8373 28.7879 46.3125 29.6756 46.7375 30.5506C44.8875 32.0631 43.725 33.8131 43.325 34.9631C42.5875 37.0881 43.1625 38.0506 44.25 38.2756C44.7374 38.3756 45.4375 38.1506 45.9624 37.9256C46.6124 37.7131 47.3998 37.3504 48.125 36.8131C49.375 35.8881 50.575 34.6006 50.5125 32.8631C50.475 32.0631 50.2625 31.2756 49.975 30.5256C51.55 29.8756 53.5873 29.5006 56.175 29.8131C61.7375 30.4631 62.8375 33.9381 62.6251 35.3881C62.4126 36.8382 61.2501 37.6381 60.8625 37.8881C60.475 38.1256 60.35 38.2132 60.3875 38.3881C60.4375 38.6507 60.6125 38.6381 60.95 38.5882C61.4125 38.5131 63.875 37.4007 63.975 34.7258C64.125 31.2878 60.8625 27.5378 55.075 27.5752ZM12.175 42.0377C10.3375 44.0502 7.75001 44.8127 6.65001 44.1627C5.46251 43.4752 5.92489 40.5127 8.18751 38.3752C9.56251 37.0752 11.35 35.8752 12.525 35.1377C12.7875 34.9752 13.1875 34.7378 13.6625 34.4502C13.7375 34.4003 13.7875 34.3752 13.7875 34.3752C13.875 34.3252 13.975 34.2627 14.075 34.2002C14.9125 37.2502 14.1125 39.9252 12.175 42.0377ZM25.6125 32.9002C24.975 34.4627 23.625 38.4752 22.8125 38.2502C22.1124 38.0627 21.6875 35.0252 22.6749 32.0252C23.1749 30.5126 24.2374 28.7127 24.8624 28.0126C25.875 26.8876 26.9749 26.5126 27.25 26.9751C27.575 27.5752 26.0125 31.9252 25.6125 32.9002ZM36.7 38.2002C36.425 38.3378 36.175 38.4377 36.0625 38.3628C35.975 38.3128 36.1749 38.1253 36.1749 38.1253C36.1749 38.1253 37.5624 36.6378 38.1124 35.9503C38.4249 35.5504 38.7999 35.0879 39.1999 34.5628V34.7128C39.2 36.5127 37.475 37.7127 36.7 38.2002ZM45.2499 36.2502C45.0499 36.1002 45.075 35.6377 45.7499 34.1877C46.0125 33.6127 46.6124 32.6502 47.6499 31.7377C47.7749 32.1127 47.85 32.4751 47.8374 32.8127C47.825 35.0627 46.225 35.9002 45.2499 36.2502Z" fill="#CF649A"/>
</g>
<defs>
<clipPath id="clip0">
<rect width="64" height="48" fill="white"/>
</clipPath>
</defs>
</svg>
