<svg width="48" height="48" viewBox="0 0 48 48" fill="none" xmlns="http://www.w3.org/2000/svg">
<path d="M43.3125 0H4.6875C2.09867 0 0 2.09867 0 4.6875V43.3125C0 45.9013 2.09867 48 4.6875 48H43.3125C45.9013 48 48 45.9013 48 43.3125V4.6875C48 2.09867 45.9013 0 43.3125 0Z" fill="url(#paint0_linear)"/>
<path d="M39.51 6.23975H29.37C28.1274 6.23975 27.12 7.24711 27.12 8.48975V24.9897C27.12 26.2324 28.1274 27.2398 29.37 27.2398H39.51C40.7527 27.2398 41.76 26.2324 41.76 24.9897V8.48975C41.76 7.24711 40.7527 6.23975 39.51 6.23975Z" fill="white"/>
<path d="M18.63 6.23975H8.49002C7.24738 6.23975 6.24002 7.24711 6.24002 8.48975V36.9897C6.24002 38.2324 7.24738 39.2397 8.49002 39.2397H18.63C19.8727 39.2397 20.88 38.2324 20.88 36.9897V8.48975C20.88 7.24711 19.8727 6.23975 18.63 6.23975Z" fill="white"/>
<defs>
<linearGradient id="paint0_linear" x1="24" y1="0" x2="24" y2="48" gradientUnits="userSpaceOnUse">
<stop stop-color="#0091E6"/>
<stop offset="1" stop-color="#0079BF"/>
</linearGradient>
</defs>
</svg>
