<svg width="22" height="22" viewBox="0 0 22 22" fill="none" xmlns="http://www.w3.org/2000/svg">
<g clip-path="url(#clip0)">
<path d="M0.0165854 7.48443C0.0216557 7.45778 0.0260392 7.43114 0.033172 7.40502C0.0376408 7.38929 0.0429686 7.37451 0.047953 7.35904C0.0551731 7.33582 0.0632863 7.31289 0.0722737 7.29029C0.078805 7.27465 0.0861952 7.25953 0.093328 7.2444C0.103212 7.22305 0.113993 7.20212 0.125641 7.18167C0.133891 7.16654 0.143429 7.15228 0.152539 7.13784C0.174529 7.10361 0.198699 7.07083 0.224899 7.0397C0.23986 7.02207 0.255453 7.00498 0.271648 6.98848C0.284109 6.97602 0.29657 6.96356 0.309633 6.95144C0.326831 6.93575 0.344725 6.92084 0.363258 6.90675C0.377438 6.89575 0.39136 6.88441 0.406227 6.87436C0.411469 6.87057 0.416281 6.86611 0.421867 6.8625L10.4759 0.159375C10.6311 0.0557772 10.8135 0.000488281 11.0001 0.000488281C11.1867 0.000488281 11.3692 0.0557772 11.5244 0.159375L21.5791 6.86232C21.5847 6.86585 21.589 6.87032 21.5947 6.87418C21.6095 6.8845 21.6234 6.8955 21.6377 6.9065C21.6559 6.92084 21.6738 6.93565 21.6913 6.95093C21.7043 6.96279 21.7168 6.97512 21.729 6.98788C21.7455 7.00455 21.7609 7.02139 21.776 7.03918C21.7872 7.0525 21.798 7.06582 21.8084 7.08069C21.8225 7.09934 21.8356 7.11833 21.8483 7.13818C21.8575 7.15271 21.8667 7.16689 21.8753 7.18201C21.8868 7.20229 21.8975 7.22305 21.9073 7.24423C21.9144 7.25936 21.9221 7.27474 21.9283 7.29012C21.9375 7.31264 21.9455 7.33575 21.9529 7.35887C21.9579 7.37434 21.9632 7.38938 21.9674 7.4033C21.9743 7.42934 21.9793 7.45572 21.984 7.48271C21.9866 7.49637 21.9899 7.50969 21.9917 7.52361C21.9971 7.56443 22 7.60534 22 7.64711V14.3516C22 14.393 21.9971 14.4345 21.9911 14.4751C21.989 14.49 21.9851 14.5017 21.9822 14.516C21.9775 14.5426 21.9734 14.5693 21.9644 14.596C21.9603 14.6108 21.9556 14.6257 21.9496 14.6419C21.9422 14.6656 21.9349 14.6893 21.9259 14.711C21.9197 14.7258 21.9111 14.7406 21.9052 14.7554C21.8954 14.7761 21.8844 14.7968 21.8726 14.8185C21.8643 14.8333 21.8549 14.8481 21.8459 14.8617C21.8332 14.8825 21.8193 14.9003 21.8045 14.918C21.7941 14.9329 21.7837 14.9447 21.7718 14.9589C21.7568 14.9767 21.7423 14.9945 21.7245 15.0102C21.7124 15.022 21.7008 15.0369 21.686 15.0457C21.6688 15.0606 21.6504 15.0754 21.6327 15.0907C21.6184 15.1026 21.603 15.1115 21.5912 15.1231C21.5855 15.126 21.5823 15.1319 21.5763 15.1346L11.5244 21.8411C11.3696 21.9457 11.1868 22.0011 11 22.0002C10.8134 21.9998 10.631 21.9445 10.4756 21.8412L0.420921 15.1381C0.415336 15.1347 0.41061 15.1305 0.405282 15.1266C0.3905 15.1163 0.376578 15.1053 0.362313 15.0944C0.343922 15.0797 0.325875 15.0647 0.308687 15.0493C0.295711 15.0377 0.28325 15.025 0.270789 15.0125C0.24227 14.9838 0.215848 14.953 0.191727 14.9204C0.177461 14.9018 0.164398 14.8825 0.15168 14.8629C0.142484 14.8487 0.133289 14.8342 0.124696 14.8197C0.112836 14.7989 0.102524 14.7779 0.0924691 14.7566C0.0853363 14.7415 0.0778588 14.7264 0.0714135 14.711C0.0622182 14.6881 0.0544847 14.665 0.0470941 14.6419C0.0421097 14.6265 0.0367819 14.6114 0.0323131 14.596C0.0254381 14.57 0.0207108 14.5432 0.0157264 14.5166C0.0133202 14.5029 0.00971095 14.4896 0.00833595 14.4757C0.00292189 14.4349 0 14.394 0 14.3522V7.64882C0 7.60706 0.00326564 7.56615 0.00833595 7.52525C0.0106563 7.51072 0.0151256 7.49895 0.0180475 7.48443H0.0165854ZM11.0003 13.2366L14.3437 11.0005L11.0003 8.76395L7.65669 11.0005L11.0003 13.2366V13.2366ZM11.9454 7.12177L16.0439 9.86317L19.3523 7.64994L11.9453 2.71215V7.12177H11.9454ZM17.7442 11.0001L20.1089 12.5819V9.41845L17.7442 11.0001ZM16.0439 12.1384L11.9453 14.8794V19.2891L19.3523 14.3507L16.0438 12.1378V12.1384H16.0439ZM10.0549 14.8789L5.95641 12.1379L2.64773 14.3507L10.0549 19.2884V14.8788V14.8789ZM4.25614 11.0007L1.89106 9.41871V12.5825L4.25605 11.0001V11.0007H4.25614ZM5.95641 9.86309L10.0549 7.12203V2.71215L2.64773 7.65003L5.95633 9.86309H5.95641Z" fill="#E9FFFF"/>
</g>
<defs>
<clipPath id="clip0">
<rect width="22" height="22" fill="white" transform="matrix(-1 0 0 1 22 0)"/>
</clipPath>
</defs>
</svg>
