<svg width="22" height="22" viewBox="0 0 22 22" fill="none" xmlns="http://www.w3.org/2000/svg">
<path d="M11 0C4.92238 0 0 4.99724 0 11.1673C0 16.4154 3.54715 20.7711 8.33285 21.9991C8.27762 21.8593 8.25047 21.6636 8.25047 21.4687V19.5698H6.87523C6.13285 19.5698 5.44477 19.2353 5.14238 18.6204C4.78477 17.9503 4.72953 16.9172 3.82238 16.2748C3.54715 16.0514 3.76715 15.8281 4.06953 15.8556C4.64715 16.0229 5.1143 16.4145 5.5543 16.9999C5.9943 17.5863 6.18715 17.726 7.01191 17.726C7.39668 17.726 8.00145 17.6985 8.55191 17.6139C8.8543 16.8317 9.37668 16.1341 10.0095 15.7996C6.32477 15.3529 4.56477 13.51 4.56477 10.9972C4.56477 9.90798 5.03191 8.87489 5.80238 7.98151C5.55523 7.11569 5.22477 5.32893 5.91285 4.63133C7.56332 4.63133 8.55285 5.7205 8.8 5.99896C9.62477 5.71954 10.5329 5.55227 11.4671 5.55227C12.4295 5.55227 13.3095 5.71954 14.1343 5.99896C14.3814 5.71954 15.3719 4.63133 17.0214 4.63133C17.6814 5.30137 17.3791 7.11569 17.1038 7.98151C17.8743 8.84733 18.3143 9.90798 18.3143 10.9972C18.3143 13.51 16.5814 15.3529 12.9248 15.7435C13.9424 16.2738 14.6576 17.7812 14.6576 18.8979V21.4412C14.6576 21.5248 14.6305 21.6084 14.6305 21.6921C18.92 20.1847 22 16.0533 22 11.1673C22 4.99724 17.0776 0 11 0Z" fill="#E9FFFF"/>
</svg>
