<svg width="20" height="20" viewBox="0 0 20 20" fill="none" xmlns="http://www.w3.org/2000/svg">
<path d="M4.54007 19.9995V6.50509H0.252711V19.9995H4.54052H4.54007ZM2.39729 4.66297C3.89207 4.66297 4.82267 3.62675 4.82267 2.33178C4.79469 1.00729 3.89207 0 2.42571 0C0.958355 0 0 1.00729 0 2.33166C0 3.62663 0.930264 4.66285 2.3692 4.66285H2.39695L2.39729 4.66297ZM6.91318 19.9995H11.2002V12.4644C11.2002 12.0617 11.2282 11.6578 11.3415 11.3701C11.6512 10.564 12.3567 9.72953 13.5413 9.72953C15.0923 9.72953 15.7131 10.9669 15.7131 12.7812V19.9995H20V12.2622C20 8.11749 17.8852 6.18872 15.0645 6.18872C12.752 6.18872 11.7363 7.54095 11.172 8.46195H11.2005V6.50556H6.91341C6.96937 7.77149 6.91307 20 6.91307 20L6.91318 19.9995Z" fill="#E9FFFF"/>
</svg>
