<svg width="22" height="22" viewBox="0 0 22 22" fill="none" xmlns="http://www.w3.org/2000/svg">
<path d="M20.0664 2.62109H1.93359C0.868742 2.62109 0 3.48889 0 4.55469V17.4453C0 18.5075 0.864875 19.3789 1.93359 19.3789H20.0664C21.1286 19.3789 22 18.514 22 17.4453V4.55469C22 3.4925 21.1351 2.62109 20.0664 2.62109ZM19.7994 3.91016L11.041 12.6686L2.20683 3.91016H19.7994ZM1.28906 17.1784V4.81546L7.49714 10.9703L1.28906 17.1784ZM2.20056 18.0898L8.41255 11.8779L10.5892 14.0358C10.8412 14.2856 11.2478 14.2848 11.4987 14.0339L13.6211 11.9115L19.7994 18.0898H2.20056ZM20.7109 17.1783L14.5326 11L20.7109 4.82161V17.1783Z" fill="#E9FFFF"/>
</svg>
